{"glyphs":{":":{"x_min":0,"x_max":246,"ha":246,"o":"m 187 324 q 187 294 169 273 q 150 252 125 252 q 68 252 68 315 q 68 343 88 364 q 107 383 132 383 q 187 383 187 324 z m 182 58 q 182 28 164 7 q 145 -14 119 -14 q 63 -14 63 50 q 63 79 83 98 q 102 118 128 118 q 182 118 182 58 z"},"$":{"x_min":0,"x_max":407,"ha":407,"o":"m 365 105 q 365 54 324 24 q 283 -6 209 -8 q 207 -43 203 -104 q 202 -111 194 -109 q 167 -100 169 -76 q 170 -49 174 -7 q 108 -3 72 19 q 40 39 40 67 q 40 107 72 107 q 101 107 115 71 q 131 31 176 26 q 182 111 184 168 q 109 195 83 220 q 56 245 56 288 q 56 339 96 370 q 135 398 198 401 q 199 426 202 474 q 203 487 218 481 q 240 472 238 451 q 237 440 235 400 q 289 396 322 378 q 358 358 358 330 q 358 292 326 292 q 298 292 281 329 q 268 358 233 365 l 224 234 q 304 206 333 180 q 365 153 365 105 z m 196 368 q 117 367 117 312 q 117 277 189 248 q 192 284 196 368 z m 299 81 q 299 105 282 121 q 266 137 219 155 q 216 109 211 23 q 299 26 299 81 z"},"?":{"x_min":0,"x_max":388,"ha":388,"o":"m 357 453 q 357 380 312 346 q 280 321 183 294 q 165 289 161 269 q 158 253 150 216 q 146 200 127 193 q 121 191 117 191 q 108 191 108 205 q 108 294 103 336 q 99 369 127 369 q 235 369 273 390 q 305 408 305 453 q 305 515 269 554 q 234 591 182 591 q 154 591 128 555 q 113 535 93 535 q 75 535 62 554 q 50 573 50 605 q 50 625 76 639 q 104 654 148 654 q 236 654 297 593 q 357 534 357 453 z m 186 53 q 186 25 169 6 q 152 -13 129 -13 q 78 -13 78 44 q 78 70 96 89 q 113 107 137 107 q 186 107 186 53 z"},"<":{"x_min":0,"x_max":392,"ha":392,"o":"m 340 -6 q 333 -16 317 -4 l 64 170 q 50 179 50 186 q 50 193 64 202 l 314 374 q 333 387 339 379 q 342 374 342 371 q 342 365 326 350 l 143 186 l 329 19 q 346 3 340 -6 z"},"'":{"x_min":0,"x_max":203,"ha":203,"o":"m 157 613 q 157 529 125 419 q 122 408 104 404 q 94 402 91 406 q 87 411 88 424 q 88 433 88 443 q 88 527 68 609 q 65 619 65 625 q 65 645 112 651 q 124 652 131 652 q 157 652 157 613 z"},"=":{"x_min":0,"x_max":529,"ha":529,"o":"m 437 294 q 437 281 428 270 q 419 258 407 258 l 102 258 q 93 258 93 275 q 93 303 121 303 l 428 303 q 437 303 437 294 z m 437 121 q 437 108 428 97 q 419 85 407 85 l 102 85 q 93 85 93 103 q 93 131 121 131 l 428 131 q 437 131 437 121 z"},"a":{"x_min":0,"x_max":448,"ha":448,"o":"m 430 47 q 430 37 393 16 q 355 -5 333 -5 q 314 -5 299 14 q 285 32 279 32 q 274 32 232 12 q 190 -8 148 -8 q 108 -8 81 16 q 52 42 52 86 q 52 170 245 207 q 278 213 279 234 l 280 265 q 283 345 209 345 q 188 345 169 308 q 150 270 115 267 q 75 263 75 301 q 75 324 135 355 q 197 388 255 388 q 354 388 353 294 l 351 93 q 351 61 378 61 q 383 61 398 63 q 414 66 416 66 q 430 66 430 47 z m 280 158 q 280 170 274 174 q 268 178 255 176 q 137 155 137 99 q 137 43 198 43 q 223 43 249 52 q 279 63 279 78 z"},"L":{"x_min":0,"x_max":582,"ha":582,"o":"m 549 122 q 532 60 532 5 q 532 -4 501 -3 q 424 1 310 1 q 189 1 94 -4 q 80 -5 77 -2 q 73 1 73 13 q 73 26 94 28 q 142 33 142 79 l 142 530 q 142 564 133 581 q 122 600 90 611 q 71 618 73 633 q 75 644 80 646 q 84 647 105 645 q 176 637 275 646 q 292 647 295 647 q 305 646 306 634 q 308 621 300 616 q 297 614 280 610 q 246 602 237 592 q 228 582 228 550 l 228 113 q 228 72 256 57 q 283 42 356 42 q 425 42 459 60 q 492 78 513 127 q 521 146 537 140 q 553 136 549 122 z"},"3":{"x_min":0,"x_max":376,"ha":376,"o":"m 325 57 q 325 -123 45 -168 q 27 -171 25 -154 q 23 -142 29 -137 q 34 -133 52 -129 q 145 -107 189 -73 q 239 -33 239 33 q 239 77 208 103 q 179 126 136 126 q 112 126 103 124 q 89 121 84 138 q 79 153 96 161 q 236 226 236 295 q 236 356 171 356 q 119 356 71 329 q 56 321 44 335 q 39 341 39 345 q 39 352 53 362 q 116 409 192 409 q 324 409 324 311 q 324 229 195 171 q 253 173 289 143 q 325 112 325 57 z"},";":{"x_min":0,"x_max":246,"ha":246,"o":"m 187 324 q 187 294 169 273 q 150 252 125 252 q 68 252 68 315 q 68 343 88 364 q 107 383 132 383 q 187 383 187 324 z m 193 24 q 193 -103 86 -167 q 76 -173 72 -173 q 65 -173 59 -157 q 57 -152 57 -148 q 57 -140 85 -121 q 133 -88 133 -46 q 133 -24 105 -7 q 66 18 66 53 q 66 77 82 93 q 98 109 125 109 q 157 109 175 85 q 193 62 193 24 z"},"J":{"x_min":0,"x_max":380,"ha":380,"o":"m 314 632 q 316 619 291 612 q 260 603 250 596 q 236 585 236 563 l 236 48 q 236 -63 174 -124 q 118 -178 27 -178 q -33 -178 -67 -157 q -77 -151 -77 -140 q -77 -128 -68 -109 q -54 -80 -38 -80 q -28 -80 1 -99 q 40 -124 71 -124 q 115 -124 131 -97 q 150 -66 150 19 l 150 568 q 150 589 138 597 q 129 603 92 613 q 71 619 72 632 q 73 647 94 645 q 199 635 291 649 q 305 651 308 648 q 312 645 314 632 z"},"V":{"x_min":0,"x_max":812,"ha":812,"o":"m 773 630 q 773 619 768 615 q 762 610 741 604 q 716 596 684 537 q 565 315 442 11 q 434 -10 406 -17 q 405 -18 403 -18 q 392 -18 384 11 q 368 72 287 248 q 206 423 132 554 q 106 600 63 609 q 39 614 39 623 q 39 646 60 643 q 149 633 269 652 q 287 655 291 654 q 299 651 299 637 q 299 626 274 617 q 225 599 225 579 q 225 571 231 559 q 281 461 422 135 q 427 124 431 124 q 435 124 440 135 q 480 229 620 538 q 625 550 625 560 q 625 590 566 611 q 544 619 545 634 q 546 651 577 647 q 674 635 751 645 q 773 648 773 630 z"},"\"":{"x_min":0,"x_max":381,"ha":381,"o":"m 335 613 q 335 534 303 419 q 300 408 282 404 q 272 402 269 406 q 265 411 266 424 q 272 515 247 609 q 245 619 245 625 q 245 646 290 651 q 302 652 309 652 q 327 652 332 641 q 335 634 335 613 z m 157 613 q 157 529 125 419 q 122 408 104 404 q 94 402 91 406 q 87 411 88 424 q 88 433 88 443 q 88 527 68 609 q 65 619 65 625 q 65 645 112 651 q 124 652 131 652 q 157 652 157 613 z"},"7":{"x_min":0,"x_max":453,"ha":453,"o":"m 419 369 q 396 340 317 154 q 250 -3 193 -153 q 191 -159 146 -168 q 104 -177 92 -177 q 78 -177 88 -163 q 208 10 333 320 q 338 333 329 333 q 302 333 209 326 q 111 318 70 312 q 50 309 50 323 q 50 335 69 370 q 76 384 88 407 q 94 419 102 419 q 117 419 124 408 q 135 396 169 394 q 207 392 406 390 q 417 390 420 383 q 424 376 419 369 z"},"S":{"x_min":0,"x_max":581,"ha":581,"o":"m 503 170 q 503 87 442 38 q 379 -14 270 -14 q 126 -14 101 39 q 86 71 71 121 q 64 144 80 151 q 100 160 111 143 q 152 82 194 56 q 235 31 289 31 q 425 31 425 139 q 425 182 395 211 q 366 239 276 288 q 162 350 125 385 q 81 428 81 492 q 81 560 138 608 q 195 656 283 656 q 346 656 405 640 q 450 628 456 609 q 468 569 472 511 q 473 490 458 488 q 439 485 431 501 q 401 562 362 587 q 327 610 269 610 q 218 610 188 586 q 158 562 158 518 q 158 477 188 447 q 215 419 290 382 q 405 324 449 284 q 503 235 503 170 z"},"}":{"x_min":0,"x_max":441,"ha":441,"o":"m 397 280 q 397 265 388 264 q 325 258 298 244 q 254 222 254 170 q 254 149 274 84 q 292 25 292 -1 q 292 -132 61 -173 q 39 -177 35 -163 q 29 -143 45 -139 q 138 -117 173 -91 q 208 -65 208 -17 q 208 3 191 62 q 173 124 173 160 q 173 209 201 238 q 224 263 274 280 q 224 297 201 322 q 173 351 173 400 q 173 436 191 498 q 208 557 208 577 q 208 625 173 651 q 138 677 45 699 q 29 703 35 723 q 39 737 61 733 q 292 692 292 561 q 292 535 274 476 q 254 411 254 390 q 254 337 298 315 q 325 302 388 296 q 397 295 397 280 z"},"Z":{"x_min":0,"x_max":683,"ha":683,"o":"m 620 151 q 622 62 606 1 q 603 -10 576 -8 q 473 1 341 1 q 150 1 87 -4 q 60 -6 54 3 q 49 15 63 33 q 301 338 465 577 q 471 586 471 589 q 471 597 428 597 l 309 597 q 214 597 173 569 q 141 547 114 482 q 106 462 90 469 q 74 473 78 487 q 95 555 95 636 q 95 647 126 645 q 231 638 370 638 q 505 638 580 643 q 605 645 609 637 q 613 628 600 611 q 379 332 206 81 q 197 68 197 62 q 197 50 224 48 q 289 43 392 43 q 496 43 533 66 q 564 86 585 154 q 591 172 608 168 q 620 165 620 151 z"},"x":{"x_min":0,"x_max":540,"ha":540,"o":"m 508 15 q 508 3 501 0 q 498 -1 483 -1 q 374 -1 350 -5 q 345 -6 340 -6 q 321 -6 321 7 q 321 12 325 18 q 338 37 327 55 q 276 136 265 136 q 250 136 189 46 q 186 43 186 39 q 186 25 212 19 q 231 15 228 1 q 226 -9 216 -10 q 207 -11 171 -5 q 146 -1 67 -1 q 52 -1 48 0 q 42 3 42 15 q 42 25 48 29 q 54 32 78 32 q 105 32 144 69 q 173 97 204 133 q 236 171 236 178 q 236 190 141 303 q 113 336 88 338 q 67 339 62 342 q 57 345 56 355 q 55 368 60 372 q 64 375 81 372 q 122 364 195 377 q 227 386 228 370 q 228 367 226 339 q 223 319 229 308 q 239 290 257 265 q 275 241 279 241 q 284 241 304 266 q 325 290 336 308 q 345 323 345 335 q 345 348 333 348 q 319 348 319 363 q 319 376 344 373 q 365 371 385 371 q 402 371 432 374 q 457 376 468 375 q 492 373 492 359 q 492 349 488 346 q 483 344 463 341 q 423 335 391 300 q 308 208 308 201 q 308 192 393 91 q 437 38 476 32 q 486 30 497 29 q 508 26 508 15 z"},")":{"x_min":0,"x_max":387,"ha":387,"o":"m 319 280 q 319 151 245 31 q 176 -80 58 -167 q 46 -175 40 -175 q 33 -175 28 -167 q 19 -150 29 -141 q 134 -47 181 42 q 235 145 235 280 q 235 416 181 519 q 134 607 29 701 q 19 710 28 727 q 33 735 40 735 q 46 735 58 727 q 176 640 245 529 q 319 408 319 280 z"},"&":{"x_min":0,"x_max":792,"ha":792,"o":"m 754 51 q 759 38 741 26 q 690 -6 642 -6 q 590 -6 562 14 q 536 33 512 82 q 505 97 500 105 q 407 -6 279 -6 q 175 -6 115 39 q 53 84 53 165 q 53 306 233 383 q 160 445 160 517 q 160 581 206 619 q 249 656 316 656 q 377 656 417 625 q 458 592 458 539 q 458 438 346 387 q 381 363 440 315 q 490 265 527 214 q 562 279 592 370 q 597 385 597 398 q 597 426 560 441 q 543 448 543 459 q 543 473 568 467 q 586 463 636 460 q 682 458 698 460 q 725 462 725 448 q 725 437 686 431 q 666 428 657 420 q 649 413 642 391 q 602 264 551 178 q 558 167 573 138 q 602 83 622 63 q 645 40 676 40 q 701 40 739 59 q 749 64 754 51 z m 384 531 q 384 620 312 620 q 235 620 235 534 q 235 474 311 412 q 384 447 384 531 z m 480 140 q 441 204 367 280 q 358 290 268 355 q 140 297 140 187 q 140 117 187 77 q 230 39 301 39 q 401 39 480 140 z"},"_":{"x_min":0,"x_max":402,"ha":402,"o":"m 406 -144 l -4 -144 l -4 -85 l 406 -85 z"},"v":{"x_min":0,"x_max":532,"ha":532,"o":"m 504 360 q 504 351 473 341 q 453 335 439 301 q 415 243 355 132 q 305 38 278 -6 q 276 -9 271 -9 q 267 -8 264 -5 q 161 144 87 300 q 71 333 56 337 q 28 348 28 357 q 28 376 47 374 q 77 370 135 372 q 192 374 215 378 q 229 381 229 367 q 229 350 209 345 q 171 335 171 319 q 171 312 176 298 q 192 257 235 179 q 278 102 284 102 q 289 102 326 176 q 365 255 382 303 q 384 309 384 314 q 384 333 361 345 q 338 354 338 363 q 338 380 353 377 q 373 374 422 371 q 471 369 486 370 q 504 374 504 360 z"},"O":{"x_min":0,"x_max":827,"ha":827,"o":"m 766 322 q 766 181 662 83 q 559 -14 415 -14 q 264 -14 164 77 q 61 170 61 319 q 61 462 165 560 q 268 656 415 656 q 565 656 665 562 q 766 468 766 322 z m 667 305 q 667 447 589 530 q 515 609 392 609 q 291 609 225 534 q 160 459 160 339 q 160 195 236 112 q 310 32 436 32 q 538 32 603 107 q 667 183 667 305 z"},"(":{"x_min":0,"x_max":387,"ha":387,"o":"m 359 -167 q 354 -175 347 -175 q 340 -175 329 -167 q 210 -80 143 31 q 68 151 68 280 q 68 408 143 529 q 210 640 329 727 q 340 735 347 735 q 354 735 359 727 q 368 710 358 701 q 253 607 207 519 q 152 416 152 280 q 152 145 207 42 q 253 -47 358 -141 q 368 -150 359 -167 z"},"C":{"x_min":0,"x_max":747,"ha":747,"o":"m 680 159 q 674 94 659 54 q 649 28 584 8 q 513 -14 420 -14 q 267 -14 165 77 q 61 170 61 315 q 61 463 168 561 q 271 656 417 656 q 521 656 591 631 q 653 609 656 590 q 661 553 661 469 q 661 456 636 453 q 617 451 613 465 q 587 548 544 581 q 500 613 414 613 q 306 613 237 541 q 163 463 163 327 q 163 192 241 109 q 317 28 436 28 q 513 28 558 61 q 600 93 627 165 q 635 186 662 180 q 682 176 680 159 z"},"W":{"x_min":0,"x_max":1120,"ha":1120,"o":"m 1080 622 q 1080 605 1049 596 q 1015 586 992 529 q 882 258 788 11 q 780 -9 752 -17 q 750 -18 749 -18 q 735 -18 729 11 q 707 118 566 435 q 505 282 404 11 q 396 -9 369 -17 q 367 -18 365 -18 q 352 -18 346 11 q 328 109 132 546 q 112 591 63 602 q 39 607 39 616 q 39 637 60 635 q 136 628 249 645 q 268 648 273 646 q 277 643 279 631 q 281 621 255 608 q 224 592 224 572 q 224 563 228 552 q 277 422 384 140 q 387 131 393 131 q 398 131 402 140 l 537 500 q 529 516 515 546 q 498 583 453 603 q 431 613 432 623 q 435 645 454 642 q 541 628 648 639 q 667 641 672 638 q 677 636 677 623 q 677 611 652 603 q 604 588 604 571 q 604 565 609 552 l 766 140 q 770 130 776 130 q 781 130 785 140 l 931 530 q 935 542 935 551 q 935 584 877 604 q 855 611 856 626 q 857 637 861 639 q 867 642 888 639 q 979 628 1059 637 q 1080 639 1080 622 z"},"A":{"x_min":0,"x_max":765,"ha":765,"o":"m 733 10 q 730 -3 727 -6 q 724 -8 713 -5 q 643 8 509 -2 q 483 -4 481 8 q 479 21 497 29 q 550 50 550 69 q 550 76 544 90 q 508 176 484 229 q 449 227 362 227 q 290 227 239 231 q 222 189 191 114 q 184 97 184 83 q 184 56 214 43 q 260 23 259 13 q 258 -3 228 0 q 136 10 58 -6 q 38 -10 35 9 q 33 21 67 36 q 103 51 128 106 q 223 312 251 377 q 318 533 346 632 q 350 647 385 660 q 393 663 406 632 q 511 378 642 89 q 663 43 713 28 q 735 21 733 10 z m 468 267 q 436 340 367 494 q 363 502 358 502 q 354 502 350 494 l 257 269 q 309 265 374 265 q 414 265 468 267 z"},"f":{"x_min":0,"x_max":354,"ha":354,"o":"m 406 666 q 406 646 387 618 q 369 591 358 591 q 345 591 330 604 q 299 626 276 626 q 183 626 183 496 l 183 391 q 183 367 225 370 l 287 375 q 324 378 327 363 q 328 358 328 349 q 328 329 318 324 q 312 321 288 321 l 226 321 q 185 321 183 303 q 182 293 183 91 q 183 63 208 52 q 228 42 272 39 q 290 38 293 35 q 297 32 297 19 q 297 4 293 1 q 289 -2 272 -1 q 164 5 78 -4 q 56 -6 51 -4 q 46 -1 46 13 q 46 25 74 33 q 108 42 108 82 l 108 272 q 108 302 99 313 q 92 321 74 327 q 46 336 46 355 q 46 368 58 372 q 62 373 82 373 q 100 374 104 381 q 107 386 107 407 l 107 485 q 107 578 183 637 q 256 693 362 693 q 406 693 406 666 z"},"Q":{"x_min":0,"x_max":827,"ha":827,"o":"m 1084 -126 q 1087 -145 1077 -148 q 971 -178 854 -178 q 735 -178 630 -138 q 514 -94 447 -13 q 442 -13 431 -14 q 420 -14 415 -14 q 264 -14 164 77 q 61 170 61 319 q 61 462 165 560 q 268 656 415 656 q 565 656 665 562 q 766 468 766 322 q 766 218 706 133 q 648 51 553 13 q 611 -57 701 -97 q 787 -134 879 -134 q 973 -134 1069 -115 q 1080 -113 1084 -126 z m 667 305 q 667 447 589 530 q 515 609 392 609 q 291 609 225 534 q 160 459 160 339 q 160 195 236 112 q 310 32 436 32 q 538 32 603 107 q 667 183 667 305 z"},"w":{"x_min":0,"x_max":765,"ha":765,"o":"m 737 359 q 737 350 703 341 q 681 335 666 301 q 578 105 509 -14 q 507 -17 501 -17 q 496 -16 494 -13 q 482 4 434 109 q 390 206 386 206 q 381 206 334 113 q 281 9 271 -6 q 270 -9 264 -9 q 259 -9 256 -5 q 220 51 92 300 q 77 329 59 337 q 28 351 28 357 q 28 376 49 374 q 143 364 214 378 q 230 381 230 367 q 230 348 208 343 q 179 336 179 321 q 179 312 186 294 q 204 249 239 179 q 274 109 280 109 q 284 109 321 182 q 359 254 359 262 q 359 281 346 303 q 331 335 311 342 q 279 353 279 364 q 279 383 301 380 q 376 370 460 384 q 476 387 476 374 q 476 355 452 351 q 424 346 424 322 q 424 311 430 296 q 505 112 517 112 q 521 112 556 184 q 593 260 608 307 q 609 310 609 312 q 609 333 576 345 q 551 354 551 364 q 551 381 567 377 q 589 372 646 370 q 700 368 717 370 q 737 373 737 359 z"},"-":{"x_min":0,"x_max":337,"ha":337,"o":"m 290 309 q 290 261 261 256 q 171 242 92 219 q 69 212 61 212 q 47 212 47 231 q 47 286 71 289 q 96 292 258 322 q 276 325 280 325 q 290 323 290 309 z"},"E":{"x_min":0,"x_max":618,"ha":618,"o":"m 560 122 q 546 64 542 5 q 542 -4 512 -3 q 436 1 318 1 q 188 1 94 -4 q 73 -5 73 13 q 73 26 94 28 q 124 31 132 39 q 142 49 142 80 l 142 530 q 142 575 134 587 q 125 599 88 611 q 68 617 73 635 q 76 644 81 645 q 86 646 107 643 q 138 638 270 638 q 401 638 496 644 q 528 646 528 640 q 528 637 527 635 q 517 587 518 525 q 519 510 504 510 q 490 510 485 523 q 471 557 461 569 q 445 588 416 593 q 393 597 251 597 q 235 597 230 592 q 228 589 228 577 l 228 373 q 228 361 242 361 q 287 362 371 367 q 386 369 393 381 q 398 391 404 422 q 408 443 427 437 q 443 434 441 422 q 427 355 432 249 q 433 237 416 235 q 401 233 399 251 q 394 289 386 301 q 379 312 358 315 q 318 320 237 320 q 228 320 228 313 l 228 100 q 228 55 281 44 q 294 42 372 42 q 494 42 524 127 q 531 147 548 140 q 563 136 560 122 z"},"s":{"x_min":0,"x_max":396,"ha":396,"o":"m 345 105 q 345 53 305 23 q 266 -8 197 -8 q 151 -8 105 2 q 65 11 59 18 q 55 25 55 85 q 55 111 67 112 q 79 113 87 99 q 124 35 205 35 q 274 35 274 83 q 274 104 258 118 q 241 134 192 156 q 121 188 97 211 q 71 237 71 280 q 71 333 111 362 q 149 390 212 390 q 251 390 284 384 q 319 377 321 368 q 325 341 337 289 q 338 283 323 279 q 307 275 302 284 q 263 347 204 347 q 137 347 137 304 q 137 280 155 266 q 171 254 231 228 q 293 201 316 180 q 345 152 345 105 z"},">":{"x_min":0,"x_max":392,"ha":392,"o":"m 328 170 l 78 -2 q 59 -15 53 -7 q 50 -2 50 1 q 50 7 66 22 l 249 186 l 63 353 q 46 369 52 378 q 58 388 75 376 l 328 202 q 341 193 341 186 q 341 179 328 170 z"},"l":{"x_min":0,"x_max":285,"ha":285,"o":"m 270 14 q 270 -5 248 -3 q 181 3 81 -5 q 61 -7 56 -4 q 52 -1 52 12 q 52 24 78 32 q 105 40 105 80 l 105 522 q 105 562 94 580 q 82 599 53 609 q 38 614 38 624 q 38 639 60 646 q 93 657 129 679 q 158 697 166 697 q 184 697 184 672 q 184 674 182 623 q 181 575 181 528 l 183 92 q 183 62 198 49 q 212 35 248 31 q 270 28 270 14 z"},"8":{"x_min":0,"x_max":478,"ha":478,"o":"m 427 163 q 427 84 368 37 q 314 -6 237 -6 q 156 -6 105 34 q 51 78 51 152 q 51 253 174 318 q 77 370 77 462 q 77 526 129 569 q 178 608 244 608 q 312 608 356 573 q 401 537 401 475 q 401 385 303 332 q 427 272 427 163 z m 335 468 q 335 509 310 536 q 284 563 242 563 q 201 563 174 538 q 147 512 147 476 q 147 397 254 354 q 335 392 335 468 z m 347 149 q 347 198 321 230 q 292 267 223 297 q 129 250 129 161 q 129 103 160 71 q 191 39 242 39 q 285 39 313 64 q 347 94 347 149 z"},"\\":{"x_min":0,"x_max":492,"ha":492,"o":"m 517 -143 q 519 -146 519 -149 q 519 -155 502 -165 q 481 -177 475 -166 q 229 303 17 702 q 12 715 33 726 q 54 736 59 726 z"},"e":{"x_min":0,"x_max":435,"ha":435,"o":"m 404 82 q 404 61 347 30 q 283 -5 215 -5 q 141 -5 91 43 q 37 95 37 180 q 37 277 97 335 q 153 390 235 390 q 283 390 325 359 q 363 332 375 297 q 379 285 388 283 q 401 281 401 266 q 401 246 353 232 l 128 165 q 150 49 247 49 q 303 49 375 90 q 386 96 396 96 q 404 96 404 82 z m 288 278 q 288 305 266 325 q 245 345 213 345 q 123 345 123 216 l 123 204 l 256 244 q 288 253 288 278 z"},"b":{"x_min":0,"x_max":501,"ha":501,"o":"m 462 219 q 462 123 395 57 q 330 -6 241 -6 q 191 -6 136 11 q 83 27 83 40 q 83 51 83 119 q 85 201 85 239 q 85 295 84 403 q 83 511 83 546 q 83 581 72 594 q 62 606 30 613 q 17 617 17 629 q 17 639 36 646 q 63 656 104 679 q 136 697 144 697 q 159 697 159 672 q 159 670 158 621 q 157 575 157 528 l 158 359 q 158 335 175 345 q 233 379 297 379 q 370 379 416 335 q 462 291 462 219 z m 384 176 q 384 243 347 286 q 312 326 261 326 q 227 326 193 308 q 159 290 159 270 l 159 139 q 159 45 263 45 q 317 45 351 80 q 384 115 384 176 z"},"%":{"x_min":0,"x_max":800,"ha":800,"o":"m 762 131 q 762 66 724 25 q 685 -17 620 -17 q 561 -17 521 23 q 482 62 482 122 q 482 188 524 229 q 565 268 625 268 q 686 268 724 230 q 762 192 762 131 z m 555 398 q 454 243 276 -39 q 271 -49 254 -36 q 236 -23 241 -16 q 318 104 520 420 q 526 430 542 418 q 560 405 555 398 z m 319 271 q 319 207 281 166 q 242 123 177 123 q 118 123 78 163 q 39 203 39 262 q 39 328 82 369 q 122 408 182 408 q 243 408 281 370 q 319 332 319 271 z m 686 125 q 686 235 624 235 q 558 235 558 129 q 558 16 624 16 q 686 16 686 125 z m 243 265 q 243 375 181 375 q 115 375 115 269 q 115 156 181 156 q 243 156 243 265 z"},"m":{"x_min":0,"x_max":845,"ha":845,"o":"m 837 13 q 837 -3 822 -2 q 722 5 636 -2 q 617 -3 617 15 q 617 30 643 31 q 676 33 676 84 l 676 214 q 676 323 587 323 q 540 323 501 306 q 465 291 465 276 l 463 82 q 463 52 470 42 q 476 35 494 32 q 537 25 537 14 q 537 5 535 1 q 532 -3 517 -3 q 461 -1 355 -5 q 340 -5 335 -2 q 331 0 331 11 q 331 24 359 27 q 389 30 389 82 l 389 215 q 389 269 365 298 q 343 324 310 324 q 261 324 222 304 q 183 285 183 262 l 183 84 q 183 54 199 42 q 213 31 250 29 q 270 28 270 15 q 270 1 254 1 q 132 1 77 -6 q 59 -8 53 -6 q 49 -3 49 6 q 49 18 85 27 q 107 33 107 84 l 107 234 q 107 291 76 300 q 50 307 45 311 q 39 314 39 322 q 39 331 90 359 q 144 389 156 389 q 166 389 173 360 q 180 330 184 330 q 189 330 214 345 q 244 364 269 374 q 309 389 351 389 q 385 389 411 375 q 428 365 442 348 q 454 333 454 333 q 454 333 479 348 q 509 365 538 375 q 579 389 618 389 q 752 389 752 242 l 752 84 q 752 56 765 44 q 777 35 811 28 q 837 23 837 13 z"},"#":{"x_min":0,"x_max":524,"ha":524,"o":"m 485 275 q 477 234 454 237 q 407 242 371 245 q 366 215 355 137 q 390 133 460 125 q 469 124 464 103 q 455 62 432 64 q 404 66 344 73 q 338 36 326 -36 q 325 -43 314 -39 q 292 -27 295 -8 q 299 21 308 78 q 275 81 169 93 q 162 49 148 -36 q 147 -43 135 -39 q 114 -27 117 -8 q 123 28 133 97 q 104 100 46 106 q 34 107 39 137 q 49 175 69 172 q 95 168 143 163 q 148 197 159 270 q 130 272 67 279 q 55 280 61 310 q 69 348 91 345 q 118 341 170 335 q 174 363 183 422 q 186 434 200 429 q 219 420 216 399 q 213 375 206 330 q 254 325 345 313 q 351 348 361 422 q 364 434 378 429 q 398 420 395 399 q 391 369 380 309 q 417 306 482 298 q 490 297 485 275 z m 335 249 q 280 256 196 266 q 193 249 180 159 q 228 153 319 141 q 325 176 335 249 z"},",":{"x_min":0,"x_max":246,"ha":246,"o":"m 193 24 q 193 -103 86 -167 q 76 -173 72 -173 q 65 -173 59 -157 q 57 -152 57 -148 q 57 -140 85 -121 q 133 -88 133 -46 q 133 -24 105 -7 q 66 18 66 53 q 66 77 82 93 q 98 109 125 109 q 157 109 175 85 q 193 62 193 24 z"},"n":{"x_min":0,"x_max":559,"ha":559,"o":"m 554 9 q 554 -6 532 -5 q 427 0 373 -3 q 345 -5 343 4 q 342 7 342 12 q 342 22 370 30 q 396 37 396 80 l 396 210 q 396 322 299 322 q 255 322 218 301 q 183 281 183 260 l 183 81 q 183 35 243 30 q 266 28 266 15 q 266 3 260 0 q 257 0 243 0 q 167 3 85 -8 q 67 -10 63 -9 q 53 -7 53 6 q 53 18 81 26 q 107 34 107 91 l 107 239 q 107 276 97 287 q 90 294 52 307 q 42 311 42 321 q 42 331 62 338 q 89 348 122 371 q 149 389 157 389 q 170 389 175 359 q 179 329 187 329 q 183 329 237 358 q 291 386 343 386 q 469 386 470 242 l 471 85 q 471 55 487 42 q 499 32 532 25 q 554 21 554 9 z"},"h":{"x_min":0,"x_max":549,"ha":549,"o":"m 540 11 q 540 -5 518 -4 q 396 0 359 -2 q 341 -3 337 -2 q 328 0 328 13 q 328 22 356 31 q 375 37 379 49 q 382 56 382 80 l 382 212 q 382 326 285 326 q 242 326 205 306 q 169 286 169 267 l 169 81 q 169 34 229 28 q 252 26 252 13 q 252 3 249 0 q 245 -2 229 -2 q 151 1 71 -6 q 53 -7 49 -6 q 39 -4 39 9 q 39 20 67 27 q 93 34 93 80 l 93 522 q 93 561 85 578 q 74 602 40 613 q 27 617 27 629 q 27 637 47 646 q 74 658 115 682 q 142 697 152 697 q 170 697 170 672 q 170 672 168 623 q 167 574 167 528 l 167 361 q 167 334 175 334 q 170 334 224 362 q 277 390 325 390 q 455 390 456 246 l 457 81 q 458 32 518 26 q 540 24 540 11 z"},"z":{"x_min":0,"x_max":472,"ha":472,"o":"m 437 77 q 431 70 391 -32 q 386 -44 370 -41 q 355 -38 359 -21 q 362 -8 335 -4 q 284 3 59 3 q 46 3 46 21 q 46 25 48 27 q 155 136 311 299 q 317 306 317 309 q 317 312 307 312 q 302 312 174 309 q 127 308 104 282 q 80 255 68 259 q 53 264 60 276 q 69 291 108 391 q 113 403 125 403 q 140 403 145 392 q 150 380 187 378 q 260 375 406 373 q 412 373 417 365 q 423 358 423 352 q 423 350 422 349 q 306 231 158 82 q 151 75 151 72 q 152 67 167 67 q 301 67 329 68 q 372 69 397 82 q 422 94 424 94 q 427 94 432 92 q 446 87 437 77 z"},"B":{"x_min":0,"x_max":641,"ha":641,"o":"m 574 181 q 574 87 501 40 q 435 -4 316 -4 q 303 -4 253 -1 q 204 2 173 2 q 123 2 94 -4 q 76 -8 73 6 q 70 18 94 28 q 122 40 130 49 q 142 62 142 90 l 142 548 q 142 594 88 605 q 61 610 61 622 q 61 637 68 640 q 73 642 91 639 q 112 636 161 636 q 188 636 248 638 q 309 639 323 639 q 414 639 466 605 q 525 567 525 492 q 525 393 404 354 q 390 350 405 347 q 574 318 574 181 z m 426 484 q 426 548 394 576 q 361 605 290 605 q 233 605 229 588 q 228 584 228 578 l 228 366 l 271 366 q 352 366 389 394 q 426 421 426 484 z m 474 170 q 474 251 420 292 q 374 327 299 327 q 255 327 228 322 l 228 80 q 228 33 325 33 q 474 33 474 170 z"},"K":{"x_min":0,"x_max":717,"ha":717,"o":"m 688 17 q 688 5 685 2 q 682 0 669 0 q 542 5 468 -5 q 450 -7 447 3 q 444 15 467 25 q 480 31 480 48 q 480 65 465 81 q 396 151 230 310 l 230 80 q 230 52 288 36 q 314 29 314 17 q 314 5 310 2 q 305 -1 287 0 q 201 4 96 -4 q 76 -5 76 13 q 76 26 96 28 q 142 33 142 80 l 142 549 q 142 594 91 606 q 73 610 69 613 q 65 615 65 623 q 65 635 69 638 q 74 641 94 640 q 217 633 289 640 q 310 642 310 623 q 310 614 289 609 q 251 601 244 595 q 230 585 230 556 l 230 343 q 368 458 452 534 q 477 556 477 576 q 477 595 450 605 q 435 610 434 611 q 426 616 428 626 q 430 637 434 639 q 439 642 457 638 q 552 628 631 636 q 643 637 646 635 q 650 632 652 621 q 654 611 649 608 q 645 604 628 599 q 582 585 512 528 q 460 486 295 347 q 474 177 575 86 q 620 46 666 33 q 688 27 688 17 z"},"R":{"x_min":0,"x_max":656,"ha":656,"o":"m 642 -1 q 643 -12 623 -12 q 448 -12 292 288 q 232 285 228 285 l 228 80 q 228 57 239 50 q 250 42 289 36 q 316 32 316 17 q 316 5 312 2 q 307 -1 287 0 q 199 4 94 -4 q 73 -5 73 13 q 73 26 94 28 q 142 33 142 80 l 142 548 q 142 594 88 605 q 61 610 61 622 q 61 640 79 640 q 84 640 91 639 q 111 636 152 636 q 166 636 221 638 q 276 639 323 639 q 421 639 478 603 q 541 562 541 483 q 541 348 385 304 q 435 191 502 110 q 571 27 626 18 q 641 16 642 -1 z m 446 471 q 446 543 409 574 q 372 605 290 605 q 253 605 241 595 q 228 585 228 552 l 228 322 q 346 326 398 363 q 446 398 446 471 z"},"T":{"x_min":0,"x_max":723,"ha":723,"o":"m 682 487 q 682 478 680 475 q 678 472 670 470 q 652 466 646 484 q 625 549 596 570 q 556 600 456 600 q 416 600 412 591 q 410 588 410 583 l 410 96 q 410 65 425 52 q 439 40 483 30 q 501 26 504 24 q 511 20 509 6 q 507 -5 498 -6 q 497 -7 478 -5 q 349 6 265 -4 q 245 -6 239 -4 q 234 -1 233 8 q 229 23 250 29 q 292 40 307 55 q 323 72 323 110 l 323 583 q 323 597 306 600 q 304 600 277 600 q 184 600 140 568 q 107 544 81 480 q 73 460 58 467 q 42 471 46 485 q 63 538 63 634 q 63 645 93 643 q 198 636 326 636 q 568 636 640 646 q 667 650 670 637 q 684 572 682 487 z"},"P":{"x_min":0,"x_max":597,"ha":597,"o":"m 552 464 q 552 371 476 317 q 404 267 288 267 q 279 267 257 269 q 235 270 233 270 q 228 270 228 255 l 228 80 q 228 57 238 50 q 247 43 289 36 q 316 31 316 17 q 316 5 312 2 q 307 -1 287 0 q 199 4 94 -4 q 73 -5 73 13 q 73 26 94 28 q 142 33 142 80 l 142 548 q 142 594 88 605 q 61 610 61 622 q 61 637 68 640 q 73 642 91 639 q 113 635 156 635 q 177 635 233 637 q 289 639 323 639 q 428 639 488 595 q 552 549 552 464 z m 457 453 q 457 539 417 573 q 379 605 290 605 q 253 605 241 595 q 228 585 228 552 l 228 318 q 228 304 293 304 q 369 304 413 343 q 457 381 457 453 z"},"|":{"x_min":0,"x_max":266,"ha":266,"o":"m 157 -161 q 157 -173 133 -173 q 109 -173 109 -161 l 109 758 q 110 770 134 770 q 144 770 149 769 q 157 767 157 758 z"},"t":{"x_min":0,"x_max":337,"ha":337,"o":"m 309 46 q 309 22 266 6 q 228 -9 189 -9 q 83 -9 83 104 l 83 281 q 83 314 78 322 q 72 330 42 337 q 34 339 34 352 q 34 366 40 369 q 93 395 132 462 q 137 471 153 468 q 164 464 164 455 l 166 394 q 166 387 168 384 q 172 380 184 380 l 293 380 q 302 380 293 357 q 282 329 260 329 l 186 329 q 167 329 163 323 q 159 318 159 299 l 159 139 q 159 79 170 62 q 184 42 236 42 q 253 42 277 48 q 302 53 303 53 q 309 53 309 46 z"},"M":{"x_min":0,"x_max":966,"ha":966,"o":"m 908 16 q 908 4 903 1 q 898 -2 877 -1 q 750 4 679 -1 q 657 -2 657 16 q 657 26 679 31 q 723 41 731 47 q 742 55 741 84 l 724 501 q 724 514 717 514 q 712 514 708 505 q 621 330 586 256 q 515 109 486 33 q 473 -2 472 -3 q 467 -12 458 -15 q 453 -17 450 -17 q 440 -17 432 12 q 401 123 220 502 q 215 513 208 513 q 201 513 200 498 q 193 353 184 112 q 181 47 249 35 q 276 30 276 16 q 276 4 271 1 q 266 -2 245 -1 q 133 3 71 -1 q 49 -2 49 16 q 49 26 71 31 q 110 39 122 57 q 132 70 133 106 l 150 538 q 151 566 139 582 q 128 595 95 610 q 72 621 73 633 q 74 646 94 643 q 169 632 225 639 q 247 642 254 638 q 262 635 268 621 l 472 154 q 476 144 479 144 q 482 144 488 157 q 507 199 706 610 q 718 635 737 635 q 782 635 864 648 q 882 651 887 650 q 895 647 895 632 q 895 620 869 612 q 808 593 809 566 l 827 91 q 828 62 841 51 q 852 41 881 35 q 908 30 908 16 z"},"g":{"x_min":0,"x_max":488,"ha":488,"o":"m 463 324 q 458 288 438 288 q 430 288 410 291 q 401 292 398 292 q 391 292 391 283 q 391 281 392 268 q 393 255 393 242 q 393 136 256 98 q 175 76 175 62 q 175 48 235 40 l 311 30 q 375 21 405 6 q 452 -19 452 -71 q 452 -144 369 -195 q 288 -244 180 -244 q 114 -244 74 -217 q 35 -190 35 -146 q 35 -79 129 -17 q 86 0 86 38 q 86 73 166 102 q 51 133 51 237 q 51 302 98 344 q 145 387 217 387 q 268 387 317 364 q 349 349 398 350 l 441 351 q 458 352 461 347 q 465 342 463 324 z m 317 233 q 317 346 219 346 q 136 346 136 241 q 136 137 228 137 q 266 137 292 164 q 317 191 317 233 z m 394 -100 q 394 -63 304 -50 l 207 -36 q 193 -34 169 -29 q 117 -70 117 -132 q 117 -201 211 -201 q 284 -201 341 -167 q 394 -135 394 -100 z"},"j":{"x_min":0,"x_max":259,"ha":259,"o":"m 198 578 q 198 557 180 537 q 162 518 142 518 q 92 518 92 566 q 92 588 109 608 q 126 627 146 627 q 198 627 198 578 z m 182 363 q 182 363 181 314 q 179 265 179 219 l 179 -25 q 179 -197 34 -254 q 26 -257 19 -254 q 11 -251 11 -244 q 11 -230 39 -211 q 74 -187 87 -153 q 103 -114 103 -35 l 103 213 q 103 252 95 269 q 85 289 53 300 q 40 305 40 315 q 40 331 59 337 q 100 350 132 371 q 158 388 164 388 q 182 388 182 363 z"},"i":{"x_min":0,"x_max":292,"ha":292,"o":"m 216 565 q 216 542 199 523 q 182 504 162 504 q 139 504 125 518 q 110 531 110 553 q 110 575 128 593 q 146 612 166 612 q 216 612 216 565 z m 270 12 q 268 -2 258 -4 q 256 -4 235 -3 q 162 2 92 -5 q 73 -7 68 -3 q 63 0 63 12 q 63 23 89 31 q 117 39 117 85 l 117 213 q 117 251 109 267 q 99 289 65 300 q 50 305 50 316 q 50 330 72 337 q 113 350 145 371 q 170 388 176 388 q 195 388 195 363 q 193 235 193 102 q 193 70 202 57 q 212 42 241 35 q 273 28 270 12 z"},"y":{"x_min":0,"x_max":537,"ha":537,"o":"m 506 365 q 506 352 485 342 q 463 333 452 305 q 402 186 323 32 q 305 0 273 -64 q 241 -128 176 -231 q 154 -265 117 -259 q 85 -254 63 -240 q 42 -227 44 -215 q 48 -194 73 -192 q 116 -188 129 -184 q 146 -179 157 -164 q 182 -132 218 -68 q 252 -8 252 -1 q 252 4 191 117 q 108 269 91 302 q 75 333 56 338 q 25 346 25 359 q 25 377 45 376 q 148 368 234 382 q 249 384 249 372 q 249 355 225 349 q 189 340 189 317 q 189 313 191 308 q 215 252 255 173 q 293 98 297 98 q 301 98 329 159 q 361 230 389 309 q 390 311 390 313 q 390 337 366 346 q 339 356 339 364 q 339 380 356 378 q 426 367 486 376 q 500 378 503 376 q 506 374 506 365 z"},"@":{"x_min":0,"x_max":980,"ha":980,"o":"m 916 298 q 916 168 853 94 q 796 28 712 28 q 651 28 616 60 q 579 92 578 150 q 578 160 569 160 q 563 160 559 153 q 481 28 405 28 q 357 28 330 63 q 303 98 303 160 q 303 279 377 365 q 454 454 527 454 q 572 454 609 441 q 640 430 650 441 q 672 462 678 462 q 681 462 686 459 q 696 455 683 417 q 666 364 652 289 q 641 221 641 185 q 641 70 734 70 q 790 70 829 123 q 875 183 875 287 q 875 457 779 542 q 688 625 515 625 q 353 625 246 511 q 139 396 139 223 q 139 45 243 -61 q 347 -166 525 -166 q 656 -166 808 -84 q 814 -81 825 -98 q 835 -115 835 -125 q 835 -128 833 -129 q 667 -196 516 -196 q 307 -196 186 -90 q 62 19 62 215 q 62 404 195 530 q 328 656 523 656 q 702 656 807 566 q 916 471 916 298 z m 594 346 q 594 406 504 406 q 452 406 417 347 q 379 284 379 180 q 379 89 441 89 q 492 89 544 186 q 594 276 594 346 z"},".":{"x_min":0,"x_max":246,"ha":246,"o":"m 182 58 q 182 28 164 7 q 145 -14 119 -14 q 63 -14 63 50 q 63 79 83 98 q 102 118 128 118 q 182 118 182 58 z"},"p":{"x_min":0,"x_max":515,"ha":515,"o":"m 470 210 q 470 119 409 55 q 348 -9 266 -9 q 217 -9 171 9 q 166 11 166 -15 l 166 -162 q 166 -198 224 -208 q 251 -213 258 -217 q 265 -221 265 -231 q 265 -248 243 -246 q 141 -239 63 -251 q 47 -253 43 -251 q 39 -249 39 -238 q 39 -229 67 -218 q 91 -208 91 -171 l 91 260 q 91 312 62 325 q 28 340 28 350 q 28 361 48 366 q 74 373 101 389 q 124 402 129 402 q 144 402 153 375 q 167 336 171 336 q 172 336 213 359 q 258 384 301 384 q 371 384 416 344 q 470 298 470 210 z m 387 171 q 387 250 348 295 q 315 332 272 332 q 238 332 208 309 q 167 278 167 224 l 167 86 q 167 73 204 58 q 244 42 291 42 q 387 42 387 171 z"},"X":{"x_min":0,"x_max":776,"ha":776,"o":"m 723 16 q 722 -5 702 -2 q 614 12 501 -1 q 485 -3 481 -1 q 473 1 474 15 q 475 27 499 35 q 522 43 522 63 q 522 75 514 86 q 445 177 374 277 q 272 157 244 108 q 231 86 231 70 q 231 46 261 35 q 282 27 281 12 q 280 -5 250 -1 q 160 10 78 1 q 65 0 62 2 q 58 4 58 16 q 58 33 87 42 q 134 57 176 109 q 196 134 349 313 q 288 402 264 434 q 214 503 176 549 q 141 591 85 604 q 62 609 62 618 q 62 639 82 637 q 168 629 283 647 q 300 649 304 648 q 312 646 312 632 q 312 620 288 611 q 261 601 261 584 q 261 573 275 554 q 353 446 399 376 q 501 499 521 538 q 532 560 532 576 q 532 601 505 611 q 483 620 484 634 q 485 651 514 647 q 610 635 687 645 q 708 648 708 630 q 708 614 676 602 q 626 583 589 537 q 492 418 426 339 q 529 187 613 92 q 656 43 701 31 q 724 25 723 16 z"},"*":{"x_min":0,"x_max":510,"ha":510,"o":"m 454 514 q 460 495 460 482 q 460 461 440 459 q 295 447 281 433 q 279 431 279 428 q 279 402 396 335 q 410 327 410 319 q 410 306 377 283 q 352 265 337 265 q 326 265 320 279 q 264 416 247 420 q 236 422 221 389 q 204 351 190 282 q 186 263 175 263 q 164 263 135 284 q 105 306 105 321 q 105 329 115 336 q 223 434 223 448 q 221 463 156 463 q 124 463 74 460 q 53 458 53 482 q 53 495 59 514 q 71 554 90 554 q 96 554 103 550 q 231 471 244 477 q 249 479 249 491 q 249 522 209 624 q 205 635 205 640 q 205 656 255 656 q 304 656 304 630 q 304 627 303 624 q 271 490 282 469 q 284 466 290 466 q 329 466 410 549 q 416 555 423 555 q 441 555 454 514 z"},"Y":{"x_min":0,"x_max":769,"ha":769,"o":"m 740 630 q 740 613 709 604 q 673 593 630 537 q 544 426 523 397 q 474 330 437 269 l 437 96 q 437 62 450 49 q 461 39 500 30 q 529 23 526 6 q 524 -5 514 -6 q 513 -7 494 -5 q 397 3 303 -4 q 274 -9 271 8 q 268 24 288 29 q 328 40 340 55 q 352 70 352 110 l 352 243 q 286 373 132 554 q 92 601 52 609 q 28 614 28 623 q 28 646 49 643 q 137 632 264 652 q 282 655 286 654 q 294 651 294 637 q 294 626 269 617 q 227 601 227 583 q 227 573 237 559 q 299 476 399 321 q 405 312 408 312 q 412 312 418 321 q 439 353 491 426 q 543 500 569 538 q 582 557 582 570 q 582 596 537 611 q 513 619 515 634 q 517 651 548 647 q 644 635 719 645 q 740 647 740 630 z"},"c":{"x_min":0,"x_max":427,"ha":427,"o":"m 388 63 q 388 45 338 19 q 283 -9 230 -9 q 147 -9 94 38 q 39 88 39 173 q 39 264 103 325 q 165 384 255 384 q 310 384 350 368 q 387 354 387 337 q 387 326 369 303 q 351 280 339 280 q 332 280 305 301 q 256 340 228 340 q 184 340 156 307 q 126 271 126 207 q 126 130 169 84 q 208 43 263 43 q 318 43 366 73 q 371 76 378 76 q 388 76 388 63 z"},"!":{"x_min":0,"x_max":267,"ha":267,"o":"m 184 580 q 161 433 161 261 q 161 230 158 221 q 153 204 133 193 q 127 190 123 190 q 116 190 116 205 q 116 423 90 573 q 87 590 87 600 q 87 633 143 646 q 156 649 164 649 q 188 649 188 617 q 188 604 184 580 z m 189 53 q 189 25 172 6 q 155 -13 132 -13 q 81 -13 81 44 q 81 71 99 89 q 117 107 141 107 q 189 107 189 53 z"},"/":{"x_min":0,"x_max":492,"ha":492,"o":"m 475 702 q 262 303 17 -166 q 11 -177 -10 -165 q -27 -155 -27 -149 q -27 -146 -25 -143 q 126 145 433 726 q 438 736 460 725 q 480 715 475 702 z"},"[":{"x_min":0,"x_max":410,"ha":410,"o":"m 382 -151 q 381 -158 379 -161 q 376 -166 359 -164 q 327 -161 235 -158 q 149 -155 123 -156 q 101 -157 94 -152 q 85 -146 87 -127 q 95 -8 95 284 q 95 577 87 696 q 85 716 94 721 q 101 726 123 725 q 149 724 235 727 q 327 729 359 733 q 381 735 382 720 q 383 704 368 702 q 271 693 203 681 q 180 677 173 663 q 168 654 168 638 q 166 572 166 285 q 166 -3 168 -69 q 168 -89 176 -99 q 183 -108 203 -112 q 271 -124 368 -133 q 383 -134 382 -151 z"},"6":{"x_min":0,"x_max":481,"ha":481,"o":"m 443 193 q 443 104 386 48 q 329 -9 241 -9 q 153 -9 100 49 q 43 111 43 221 q 43 368 141 480 q 229 582 367 626 q 381 630 385 619 q 391 602 369 590 q 179 491 144 334 q 188 380 268 380 q 344 380 393 329 q 443 277 443 193 z m 356 184 q 356 250 327 292 q 296 337 243 337 q 189 337 158 297 q 127 257 127 188 q 127 119 158 77 q 190 35 243 35 q 297 35 327 75 q 356 115 356 184 z"},"r":{"x_min":0,"x_max":374,"ha":374,"o":"m 349 346 q 349 287 315 287 q 310 287 279 294 q 249 301 235 301 q 180 301 180 227 l 180 83 q 180 58 198 47 q 208 41 249 30 q 271 24 271 13 q 271 0 267 -3 q 264 -5 249 -4 q 142 7 79 -3 q 60 -6 54 -3 q 50 0 50 14 q 50 27 77 35 q 104 43 104 82 l 104 239 q 104 270 96 280 q 88 291 52 309 l 49 311 q 39 315 39 324 q 39 334 59 341 q 93 353 121 374 q 144 392 150 392 q 167 392 171 362 q 175 323 181 323 q 182 323 236 360 q 271 384 314 384 q 349 384 349 346 z"},"2":{"x_min":0,"x_max":409,"ha":409,"o":"m 393 66 q 369 28 350 -43 q 347 -56 330 -52 q 316 -49 321 -28 q 326 -8 297 -4 q 246 3 53 3 q 47 3 45 11 q 42 20 48 24 q 170 124 214 181 q 253 230 253 277 q 253 343 184 343 q 137 343 74 299 q 62 291 51 304 q 45 312 45 317 q 45 325 55 335 q 122 400 208 400 q 344 400 344 297 q 344 250 297 194 q 261 151 172 78 q 165 72 165 68 q 165 63 179 63 q 273 63 297 64 q 338 66 369 80 q 378 84 389 81 q 402 77 393 66 z"},"{":{"x_min":0,"x_max":441,"ha":441,"o":"m 406 -163 q 402 -177 380 -173 q 149 -132 149 -1 q 149 25 167 84 q 187 149 187 170 q 187 222 144 244 q 116 258 53 264 q 44 265 44 280 q 44 295 53 296 q 116 302 144 315 q 187 337 187 390 q 187 411 167 476 q 149 535 149 561 q 149 692 380 733 q 402 737 406 723 q 412 703 396 699 q 303 677 268 651 q 233 625 233 577 q 233 557 250 498 q 268 436 268 400 q 268 351 240 322 q 217 297 167 280 q 217 263 240 238 q 268 209 268 160 q 268 124 250 62 q 233 3 233 -17 q 233 -65 268 -91 q 303 -117 396 -139 q 412 -143 406 -163 z"},"9":{"x_min":0,"x_max":466,"ha":466,"o":"m 418 199 q 418 67 321 -43 q 235 -141 107 -187 q 101 -189 93 -168 q 90 -157 123 -139 q 190 -103 241 -50 q 294 6 313 63 q 276 30 203 30 q 136 30 91 74 q 41 122 41 204 q 41 292 98 348 q 152 402 231 402 q 313 402 364 351 q 418 296 418 199 z m 339 222 q 339 356 231 356 q 182 356 155 320 q 127 284 127 222 q 127 75 228 75 q 279 75 309 115 q 339 154 339 222 z"}," ":{"x_min":0,"x_max":248,"ha":248,"o":""},"I":{"x_min":0,"x_max":391,"ha":391,"o":"m 323 632 q 323 620 297 612 q 238 594 238 566 l 238 91 q 238 45 292 35 q 319 30 319 16 q 319 4 314 1 q 310 -2 289 -1 q 160 4 90 -1 q 72 -2 69 6 q 68 9 68 16 q 68 26 90 31 q 131 40 137 44 q 153 54 153 84 l 153 563 q 153 604 98 613 q 75 617 75 627 q 75 641 79 644 q 83 647 96 646 q 191 636 293 648 q 312 650 315 649 q 323 647 323 632 z"},"H":{"x_min":0,"x_max":861,"ha":861,"o":"m 809 13 q 809 0 806 -2 q 803 -5 788 -4 q 692 4 595 0 q 576 -1 571 2 q 566 5 566 17 q 566 33 592 36 q 633 42 633 80 l 633 272 q 633 293 628 300 q 623 307 605 307 l 260 307 q 238 307 233 302 q 228 296 228 274 l 228 80 q 228 52 289 36 q 316 29 316 17 q 316 5 312 2 q 307 -1 287 0 q 190 4 94 -4 q 80 -5 76 -2 q 73 0 73 13 q 73 26 94 28 q 142 33 142 80 l 142 549 q 142 594 88 606 q 68 610 65 613 q 61 615 61 623 q 61 629 62 632 q 65 642 91 640 q 214 633 290 640 q 304 641 308 638 q 312 635 312 623 q 312 614 290 609 q 251 601 243 596 q 228 586 228 556 l 228 391 q 228 357 261 357 l 601 357 q 621 357 626 361 q 633 368 633 393 l 633 561 q 633 587 619 596 q 611 602 578 608 q 551 613 551 625 q 551 638 556 642 q 561 645 581 643 q 635 638 692 641 q 733 643 774 645 q 788 645 791 643 q 795 640 795 627 q 795 614 774 612 q 720 606 720 561 l 720 80 q 720 56 737 45 q 751 36 788 28 q 809 23 809 13 z"},"4":{"x_min":0,"x_max":478,"ha":478,"o":"m 453 26 q 446 -2 429 -1 q 417 0 386 1 l 361 3 q 361 -42 363 -138 q 363 -149 347 -155 q 334 -159 321 -162 q 299 -168 291 -167 q 283 -165 283 -156 q 283 -130 285 -66 q 287 -10 287 4 q 283 4 33 13 q 25 13 23 25 q 22 37 29 45 q 273 325 316 407 q 319 413 329 413 q 339 413 360 406 q 373 402 366 377 q 362 349 362 307 l 362 55 q 388 55 407 59 q 423 62 433 75 q 442 87 452 85 q 460 83 460 70 q 460 57 453 26 z m 285 58 l 285 288 q 241 221 111 62 z"},"~":{"x_min":0,"x_max":478,"ha":478,"o":"m 409 316 q 370 264 357 249 q 332 220 306 220 q 292 220 234 237 q 176 254 170 254 q 158 254 144 245 l 98 205 q 91 199 76 212 q 64 222 71 227 q 103 271 122 294 q 148 324 173 324 q 187 324 246 307 q 304 289 309 289 q 323 289 335 299 q 362 321 382 339 q 388 344 403 331 q 416 323 409 316 z"},"D":{"x_min":0,"x_max":804,"ha":804,"o":"m 743 333 q 743 163 631 75 q 526 -6 339 -6 q 323 -6 268 -3 q 213 0 183 0 q 143 0 94 -4 q 73 -6 73 13 q 73 26 94 28 q 142 33 142 80 l 142 548 q 142 574 131 583 q 123 591 93 597 q 68 602 62 605 q 57 609 56 620 q 55 632 66 635 q 69 636 88 637 q 193 644 366 644 q 535 644 637 563 q 743 479 743 333 z m 641 320 q 641 603 350 603 q 282 603 282 603 q 228 598 228 573 l 228 120 q 228 72 253 56 q 279 40 355 40 q 641 40 641 320 z"},"^":{"x_min":0,"x_max":558,"ha":558,"o":"m 467 403 q 473 396 464 391 q 443 380 434 388 q 341 467 279 535 q 221 469 122 387 q 112 379 95 391 q 86 397 92 404 q 197 537 252 638 q 259 651 279 651 q 300 651 306 639 q 342 567 467 403 z"},"0":{"x_min":0,"x_max":477,"ha":477,"o":"m 439 204 q 439 112 384 54 q 328 -6 236 -6 q 150 -6 94 50 q 38 106 38 191 q 38 286 99 345 q 156 400 242 400 q 329 400 384 345 q 439 291 439 204 z m 352 195 q 352 269 322 312 q 292 356 240 356 q 184 356 153 312 q 124 271 124 201 q 124 122 155 80 q 186 38 240 38 q 292 38 322 78 q 352 119 352 195 z"},"F":{"x_min":0,"x_max":564,"ha":564,"o":"m 517 635 q 509 602 507 525 q 507 510 493 510 q 479 510 474 523 q 459 559 446 573 q 431 589 405 593 q 377 597 266 597 q 241 597 233 592 q 228 588 228 577 l 228 356 q 228 345 242 345 q 286 346 368 351 q 384 353 390 362 q 396 370 401 406 q 404 425 424 421 q 440 417 438 406 q 424 339 429 233 q 430 220 413 219 q 399 218 396 234 q 383 295 349 299 q 314 303 237 303 q 228 303 228 297 l 228 77 q 228 53 246 44 q 260 37 307 31 q 331 28 328 10 q 325 -6 285 -3 q 169 6 94 -4 q 73 -7 73 13 q 73 26 94 28 q 142 33 142 112 l 142 530 q 142 562 131 579 q 119 597 88 611 q 68 620 73 635 q 76 644 81 645 q 86 646 107 643 q 138 638 252 638 q 387 638 485 644 q 518 646 518 639 q 518 637 517 635 z"},"`":{"x_min":0,"x_max":478,"ha":478,"o":"m 330 465 q 335 458 324 451 q 308 441 298 450 q 231 508 173 579 q 162 596 162 605 q 162 613 183 626 q 205 638 224 638 q 235 638 248 624 q 254 618 277 562 q 301 503 330 465 z"},"k":{"x_min":0,"x_max":524,"ha":524,"o":"m 515 17 q 515 0 492 -1 q 458 -1 403 -6 q 375 -11 364 1 q 287 84 233 175 q 229 183 222 183 q 213 183 193 168 q 170 155 170 132 q 170 115 171 84 q 172 53 187 43 q 197 36 234 32 q 257 29 257 15 q 257 4 253 1 q 250 -1 234 0 q 185 4 69 -5 q 40 -7 37 2 q 36 6 36 12 q 36 27 66 35 q 93 42 93 98 l 93 525 q 93 565 85 581 q 74 601 40 612 q 24 617 24 627 q 24 641 47 649 q 83 661 117 683 q 144 700 150 700 q 170 700 170 675 q 170 678 169 626 q 169 591 169 531 l 170 225 q 170 212 177 212 q 184 212 199 225 q 240 257 299 308 q 311 320 311 328 q 311 341 271 346 q 254 348 255 365 q 256 382 272 380 q 307 375 375 375 q 421 374 468 374 q 483 374 483 356 q 483 339 459 338 q 421 336 388 321 q 342 300 289 247 q 285 244 285 240 q 285 233 302 207 q 363 114 417 67 q 452 37 482 37 q 504 37 510 34 q 515 31 515 17 z"},"u":{"x_min":0,"x_max":531,"ha":531,"o":"m 498 41 q 498 31 452 11 q 413 -6 413 -6 q 407 -6 386 16 q 365 38 357 38 q 353 38 307 18 q 261 -3 226 -3 q 153 -3 124 25 q 93 55 93 133 l 93 231 q 93 272 84 289 q 73 309 39 320 q 28 323 28 332 q 28 342 47 349 q 83 363 119 378 q 144 388 155 388 q 172 388 172 365 q 172 365 170 314 q 169 262 169 216 l 169 157 q 169 98 192 76 q 213 56 269 56 q 355 56 355 144 l 355 231 q 355 278 346 292 q 338 305 301 315 q 290 319 290 330 q 290 341 303 346 q 404 383 414 383 q 433 383 433 361 q 433 361 432 312 q 430 262 430 216 l 430 93 q 430 58 481 54 q 498 53 498 41 z"},"]":{"x_min":0,"x_max":410,"ha":410,"o":"m 323 -127 q 324 -146 317 -152 q 309 -157 287 -156 q 261 -155 175 -158 q 83 -161 51 -164 q 29 -167 28 -151 q 27 -134 42 -133 q 139 -124 207 -112 q 230 -108 237 -94 q 242 -85 242 -69 q 244 -3 244 285 q 244 572 242 638 q 241 658 234 668 q 227 677 207 681 q 139 693 42 702 q 27 704 28 720 q 28 727 30 729 q 34 735 51 733 q 83 729 175 727 q 261 724 287 725 q 309 726 317 721 q 324 716 323 696 q 315 577 315 284 q 315 -8 323 -127 z"},"U":{"x_min":0,"x_max":817,"ha":817,"o":"m 776 626 q 776 616 754 611 q 716 602 706 593 q 692 581 692 548 l 692 268 q 692 134 622 61 q 550 -14 414 -14 q 126 -14 126 257 l 126 550 q 126 596 72 606 q 53 609 49 612 q 45 615 45 624 q 45 639 52 642 q 56 643 75 642 q 207 635 276 642 q 291 644 294 641 q 297 638 297 624 q 297 614 276 609 q 235 600 229 596 q 213 586 213 556 l 213 274 q 213 149 265 91 q 316 33 431 33 q 628 33 628 260 l 628 541 q 628 574 611 589 q 597 602 563 608 q 536 613 536 626 q 536 641 544 644 q 547 645 567 644 q 703 639 754 644 q 773 646 775 636 q 776 633 776 626 z"},"o":{"x_min":0,"x_max":497,"ha":497,"o":"m 458 197 q 458 112 395 53 q 332 -6 239 -6 q 146 -6 91 46 q 39 97 39 180 q 39 267 105 326 q 169 383 258 383 q 353 383 406 332 q 458 282 458 197 z m 372 167 q 372 244 335 292 q 299 338 243 338 q 191 338 159 302 q 126 265 126 213 q 126 129 164 82 q 199 39 256 39 q 310 39 341 75 q 372 110 372 167 z"},"N":{"x_min":0,"x_max":851,"ha":851,"o":"m 805 633 q 805 621 779 613 q 720 596 720 545 l 720 194 q 720 83 723 15 q 724 -11 711 -14 q 689 -20 674 9 q 649 55 482 237 q 343 389 212 521 q 208 525 203 523 q 198 521 198 512 l 198 112 q 198 47 263 35 q 290 30 290 16 q 290 -2 260 -1 q 144 4 79 -1 q 58 -2 58 16 q 58 26 79 31 q 117 40 129 55 q 142 70 142 106 l 142 538 q 142 566 130 582 q 119 595 87 610 q 63 621 64 633 q 65 646 86 643 q 149 634 196 639 q 220 642 239 621 l 648 185 q 656 176 659 176 q 663 176 663 189 l 663 542 q 663 604 598 615 q 575 619 575 629 q 575 649 596 647 q 676 638 775 649 q 792 651 797 649 q 805 647 805 633 z"},"+":{"x_min":0,"x_max":529,"ha":529,"o":"m 480 204 q 480 194 471 186 q 462 177 451 177 l 295 177 l 295 5 q 295 -19 256 -19 q 234 -19 234 -9 l 234 177 l 59 177 q 50 177 50 190 q 50 212 78 212 l 234 212 l 234 386 q 234 410 281 410 q 295 410 295 403 l 295 212 l 471 212 q 480 212 480 204 z"},"G":{"x_min":0,"x_max":801,"ha":801,"o":"m 763 291 q 763 275 740 272 q 708 267 703 265 q 685 258 685 237 l 685 84 q 685 55 610 22 q 525 -14 420 -14 q 267 -14 165 77 q 61 170 61 315 q 61 463 168 561 q 271 656 417 656 q 529 656 607 629 q 665 609 667 590 q 672 553 672 480 q 672 464 652 463 q 628 462 623 476 q 596 549 548 581 q 499 613 414 613 q 297 613 231 541 q 163 466 163 327 q 163 193 241 111 q 317 31 436 31 q 497 31 550 53 q 600 74 600 95 l 600 197 q 600 233 585 249 q 573 264 535 275 q 507 283 509 295 q 511 308 515 311 q 520 313 539 311 q 643 298 741 309 q 747 310 750 310 q 763 310 763 291 z"},"q":{"x_min":0,"x_max":512,"ha":512,"o":"m 493 -231 q 493 -243 482 -245 q 480 -245 460 -244 q 423 -242 292 -246 q 276 -247 272 -244 q 267 -241 267 -231 q 267 -218 292 -216 q 359 -210 359 -161 l 359 -4 q 359 37 351 37 q 347 37 309 16 q 271 -5 231 -5 q 149 -5 96 44 q 41 96 41 176 q 41 276 108 336 q 169 391 256 391 q 304 391 346 381 q 388 370 384 370 q 392 370 406 387 q 421 405 426 405 q 430 405 438 399 q 445 393 445 389 q 434 279 434 173 l 435 -144 q 435 -186 463 -203 q 493 -222 493 -231 z m 359 106 l 359 273 q 359 293 324 318 q 285 346 237 346 q 190 346 160 314 q 124 277 124 206 q 124 136 166 96 q 208 56 279 56 q 311 56 335 71 q 359 86 359 106 z"},"d":{"x_min":0,"x_max":522,"ha":522,"o":"m 502 48 q 504 43 504 42 q 504 31 454 8 q 396 -19 386 -19 q 377 -19 366 10 q 354 40 350 40 q 351 40 295 14 q 239 -11 210 -11 q 146 -11 98 35 q 41 90 41 190 q 41 273 108 334 q 168 387 230 387 q 274 387 335 376 q 354 373 354 387 l 354 554 q 354 583 340 594 q 332 602 299 613 q 283 619 283 632 q 283 644 304 650 q 333 659 373 679 q 406 697 414 697 q 432 697 432 672 q 432 672 431 623 q 429 574 429 528 l 429 84 q 429 56 454 56 q 463 56 479 59 q 496 62 502 48 z m 351 96 l 351 271 q 351 292 313 315 q 272 340 225 340 q 123 340 123 214 q 123 146 164 99 q 204 51 259 51 q 284 51 317 67 q 351 84 351 96 z"},"1":{"x_min":0,"x_max":307,"ha":307,"o":"m 264 15 q 262 1 253 0 q 250 -1 230 0 q 164 5 88 -2 q 70 -3 67 -2 q 61 0 61 15 q 61 27 85 35 q 117 45 117 89 l 117 286 q 117 317 112 329 q 104 347 77 353 q 59 357 56 358 q 46 364 49 376 q 52 390 61 392 q 63 393 83 391 q 148 386 225 393 q 244 395 249 392 q 253 389 253 376 q 253 364 228 356 q 190 344 190 302 l 190 105 q 190 74 199 60 q 209 44 237 38 q 254 34 257 32 q 266 27 264 15 z"},"5":{"x_min":0,"x_max":388,"ha":388,"o":"m 360 411 q 355 402 344 363 q 334 330 314 330 q 306 330 294 334 q 254 349 165 349 q 151 349 148 336 q 142 300 130 246 q 233 211 282 170 q 338 123 338 56 q 338 -43 254 -104 q 196 -146 80 -178 q 67 -182 62 -164 q 56 -145 74 -139 q 247 -79 247 35 q 247 99 203 143 q 159 187 57 225 q 47 229 49 239 q 58 300 66 369 q 68 390 98 390 q 172 391 250 395 q 305 398 317 410 q 333 427 351 427 q 366 427 360 411 z"}}}
